<svg id="visual" viewBox="0 0 900 450" width="900" height="450" xmlns="http://www.w3.org/2000/svg" xmlns:xlink="http://www.w3.org/1999/xlink" version="1.1"><path d="M0 136L56 136L56 195L113 195L113 163L169 163L169 96L225 96L225 78L281 78L281 123L338 123L338 190L394 190L394 154L450 154L450 181L506 181L506 114L563 114L563 186L619 186L619 136L675 136L675 100L731 100L731 181L788 181L788 132L844 132L844 55L900 55L900 145L900 0L900 0L844 0L844 0L788 0L788 0L731 0L731 0L675 0L675 0L619 0L619 0L563 0L563 0L506 0L506 0L450 0L450 0L394 0L394 0L338 0L338 0L281 0L281 0L225 0L225 0L169 0L169 0L113 0L113 0L56 0L56 0L0 0Z" fill="#69f6fa"></path><path d="M0 280L56 280L56 276L113 276L113 244L169 244L169 231L225 231L225 199L281 199L281 240L338 240L338 276L394 276L394 285L450 285L450 249L506 249L506 235L563 235L563 276L619 276L619 262L675 262L675 289L731 289L731 258L788 258L788 280L844 280L844 222L900 222L900 298L900 143L900 53L844 53L844 130L788 130L788 179L731 179L731 98L675 98L675 134L619 134L619 184L563 184L563 112L506 112L506 179L450 179L450 152L394 152L394 188L338 188L338 121L281 121L281 76L225 76L225 94L169 94L169 161L113 161L113 193L56 193L56 134L0 134Z" fill="#6cc1e2"></path><path d="M0 321L56 321L56 348L113 348L113 316L169 316L169 271L225 271L225 267L281 267L281 298L338 298L338 339L394 339L394 339L450 339L450 298L506 298L506 267L563 267L563 307L619 307L619 330L675 330L675 343L731 343L731 307L788 307L788 307L844 307L844 271L900 271L900 357L900 296L900 220L844 220L844 278L788 278L788 256L731 256L731 287L675 287L675 260L619 260L619 274L563 274L563 233L506 233L506 247L450 247L450 283L394 283L394 274L338 274L338 238L281 238L281 197L225 197L225 229L169 229L169 242L113 242L113 274L56 274L56 278L0 278Z" fill="#788dae"></path><path d="M0 397L56 397L56 388L113 388L113 397L169 397L169 375L225 375L225 375L281 375L281 406L338 406L338 388L394 388L394 420L450 420L450 375L506 375L506 357L563 357L563 411L619 411L619 406L675 406L675 411L731 411L731 406L788 406L788 379L844 379L844 357L900 357L900 420L900 355L900 269L844 269L844 305L788 305L788 305L731 305L731 341L675 341L675 328L619 328L619 305L563 305L563 265L506 265L506 296L450 296L450 337L394 337L394 337L338 337L338 296L281 296L281 265L225 265L225 269L169 269L169 314L113 314L113 346L56 346L56 319L0 319Z" fill="#686171"></path><path d="M0 451L56 451L56 451L113 451L113 451L169 451L169 451L225 451L225 451L281 451L281 451L338 451L338 451L394 451L394 451L450 451L450 451L506 451L506 451L563 451L563 451L619 451L619 451L675 451L675 451L731 451L731 451L788 451L788 451L844 451L844 451L900 451L900 451L900 418L900 355L844 355L844 377L788 377L788 404L731 404L731 409L675 409L675 404L619 404L619 409L563 409L563 355L506 355L506 373L450 373L450 418L394 418L394 386L338 386L338 404L281 404L281 373L225 373L225 373L169 373L169 395L113 395L113 386L56 386L56 395L0 395Z" fill="#403e3f"></path></svg>